<?xml version="1.0" encoding="utf-8"?>
<!-- Generator: Adobe Illustrator 22.1.0, SVG Export Plug-In . SVG Version: 6.00 Build 0)  -->
<svg version="1.1" id="Capa_1" xmlns="http://www.w3.org/2000/svg" xmlns:xlink="http://www.w3.org/1999/xlink" x="0px" y="0px"
	 viewBox="0 0 643.6 241.1" style="enable-background:new 0 0 643.6 241.1;" xml:space="preserve">
<style type="text/css">
	.st0{fill:#231F20;}
	.st1{fill:#FFFFFF;}
</style>
<symbol  id="Under1in_01b" viewBox="-35.9 -12 71.9 24">
	<g>
		<g>
			<path class="st0" d="M0.8,4.1C1.1,3.7,1.5,3.5,2,3.5h0c0.7,0,1.2,0.3,1.4,1c0.3,0.7,0.4,1.6,0.4,3.1c0,1.8-0.1,2.8-0.5,3.5
				C3.2,11.7,2.6,12,2,12c-0.7,0-1.2-0.4-1.5-1.1c-0.3-0.7-0.4-1.5-0.4-3c0-0.8,0-1.6,0.1-2.3C0.3,4.9,0.5,4.4,0.8,4.1 M1.4,10.1
				c0,0.3,0.1,0.4,0.2,0.5c0.1,0.1,0.2,0.2,0.4,0.2c0.2,0,0.3-0.1,0.4-0.3c0.2-0.3,0.3-1,0.3-2.9V7.4c0-0.7,0-1.1-0.1-1.7
				c0-0.4-0.1-0.6-0.2-0.8C2.3,4.8,2.2,4.7,2,4.7c-0.2,0-0.4,0.1-0.5,0.5c-0.2,0.4-0.2,1-0.2,2.5C1.3,9,1.3,9.5,1.4,10.1"/>
			<polygon class="st0" points="-33.1,3.6 -32.9,3.7 -32.9,11.7 -33.1,11.9 -33.9,11.9 -34.1,11.8 -34.1,3.7 -34,3.6 			"/>
			<polygon class="st0" points="-14.7,3.6 -14.6,3.7 -14.6,11.7 -14.7,11.9 -15.6,11.9 -15.7,11.8 -15.7,3.7 -15.6,3.6 			"/>
			<path class="st0" d="M-17.7,3.6h1l0.1,0.1l-0.6,8.1h-1l-0.6-3.3L-18.9,8l-0.1-1.1c-0.1,0.6-0.2,1-0.3,1.6l-0.6,3.4h-1l-0.6-8.1
				l0.1-0.1h0.9l0.2,4.2c0.1-0.5,0.8-4.2,0.8-4.2h0.8l0.7,4.2L-17.7,3.6z"/>
			<polygon class="st0" points="-29.3,3.6 -29.1,3.7 -29.1,4.7 -29.3,4.8 -30.6,4.8 -30.6,11.7 -30.8,11.9 -31.6,11.9 -31.8,11.7 
				-31.8,3.7 -31.7,3.6 			"/>
			<polygon class="st0" points="-26.1,3.6 -26,3.7 -26,4.7 -26.1,4.8 -27.5,4.8 -27.5,11.7 -27.6,11.9 -28.5,11.9 -28.6,11.7 
				-28.6,3.7 -28.5,3.6 			"/>
			<path class="st0" d="M-24,3.5c0.5,0,0.8,0.1,1.1,0.3c0.2,0.2,0.4,0.4,0.5,0.7c0.1,0.3,0.1,0.8,0.1,1.4v5.8l-0.1,0.1h-0.9
				l-0.1-0.1V6c0-0.5,0-0.8-0.1-1c-0.1-0.2-0.2-0.2-0.4-0.2c-0.3,0-0.4,0.1-0.4,0.3c-0.1,0.2-0.1,0.6-0.1,1.1v5.6l-0.1,0.1h-0.9
				l-0.1-0.1V6.1c0-0.7,0-1,0.1-1.3C-25.4,4-24.8,3.5-24,3.5"/>
			<path class="st0" d="M-5.5,3.8L-5.5,3.8l-1.5,8.1h-0.9l-1.5-8.1l0.1-0.2h1L-8,5.2h1.1l0.3-1.6h1L-5.5,3.8z M-7.8,6.3
				c0,0,0.4,2.7,0.4,2.8C-7.3,8.4-7,6.3-7,6.3H-7.8z"/>
			<path class="st0" d="M-10.9,11.9l-0.1-0.1c0-3.4,0-3.4,0-3.6c0-0.4,0-0.4,0-0.7c0,0,0,0,0,0c-0.2,0.7-1.2,4.4-1.2,4.4h-0.9
				l-0.1-0.1v-8l0.1-0.1h0.9l0.1,0.1l0,3.5l0,0.5l0,0.5c0.1-0.4,0.1-0.5,0.3-1l1-3.6h0.9l0.1,0.1v8l-0.1,0.1H-10.9z"/>
			<path class="st0" d="M6,3.7l0,3.5l0,0.5l0,0.5c0.1-0.4,0.1-0.5,0.3-1l1-3.6h0.9l0.1,0.1v8l-0.1,0.1H7.2l-0.1-0.1
				c0-3.4,0-3.4,0-3.6c0-0.4,0-0.4,0-0.7c0,0,0,0,0,0C7,8.1,5.9,11.9,5.9,11.9H5l-0.1-0.1v-8L5,3.6h0.9L6,3.7z"/>
			<polygon class="st0" points="-0.9,3.7 -0.9,11.7 -1,11.9 -1.9,11.9 -2,11.7 -2,3.7 -1.9,3.6 -1,3.6 			"/>
			<polygon class="st0" points="-4.7,10.7 -4.7,3.7 -4.5,3.6 -3.7,3.6 -3.5,3.7 -3.5,10.7 -2.7,10.7 -2.5,10.8 -2.5,11.7 -2.7,11.9 
				-5.6,11.9 -5.7,11.7 -5.7,10.8 -5.6,10.7 			"/>
		</g>
		<g>
			<path class="st0" d="M10.2,7h1c0.7,0,1.2-0.4,1.2-1.1v0c0-0.7-0.5-1.1-1.2-1.1h-0.6V3.6h-0.4V7z M11.2,5.1c0.5,0,0.9,0.3,0.9,0.8
				v0c0,0.5-0.3,0.8-0.9,0.8h-0.6V5.1H11.2z"/>
			<path class="st0" d="M13.2,7h1.2c0.4,0,0.7-0.1,0.9-0.3c0.2-0.2,0.3-0.4,0.3-0.7v0c0-0.5-0.3-0.9-0.8-1l0.9-1.4h-0.4l-0.9,1.3
				h-0.8V3.6h-0.4V7z M14.3,5.3c0.6,0,0.9,0.3,0.9,0.7v0c0,0.5-0.3,0.7-0.8,0.7h-0.8V5.3H14.3z"/>
			<polygon class="st0" points="16.6,7 18.7,7 18.7,6.7 17,6.7 17,5.5 18.5,5.5 18.5,5.2 17,5.2 17,3.9 18.7,3.9 18.7,3.6 16.6,3.6 
							"/>
			<path class="st0" d="M19.5,4l0.2,0.3c0.3-0.3,0.6-0.4,1-0.4c0.4,0,0.7,0.2,0.7,0.6v0c0,0.3-0.1,0.5-0.8,0.7c-0.7,0.3-1,0.5-1,1v0
				c0,0.5,0.4,0.9,1,0.9c0.4,0,0.7-0.1,1-0.4l-0.2-0.3c-0.3,0.2-0.5,0.3-0.8,0.3c-0.4,0-0.6-0.2-0.6-0.5v0c0-0.3,0.2-0.5,0.8-0.7
				c0.7-0.3,1-0.5,1-1v0c0-0.5-0.5-0.9-1.1-0.9C20.3,3.6,19.9,3.7,19.5,4"/>
			<polygon class="st0" points="22.7,7 24.8,7 24.8,6.7 23.1,6.7 23.1,5.5 24.7,5.5 24.7,5.2 23.1,5.2 23.1,3.9 24.9,3.9 24.9,3.6 
				22.7,3.6 			"/>
			<polygon class="st0" points="25.9,7 26.3,7 28.1,4.3 28.1,7 28.4,7 28.4,3.6 28.1,3.6 26.3,6.4 26.3,3.6 25.9,3.6 			"/>
			<polygon class="st0" points="30.1,6.7 29.1,6.7 29.1,7 31.4,7 31.4,6.7 30.4,6.7 30.4,3.6 30.1,3.6 			"/>
			<path class="st0" d="M31.8,4L32,4.3c0.3-0.3,0.6-0.4,1-0.4c0.4,0,0.7,0.2,0.7,0.6v0c0,0.3-0.1,0.5-0.8,0.7c-0.7,0.3-1,0.5-1,1v0
				c0,0.5,0.4,0.9,1,0.9c0.4,0,0.7-0.1,1-0.4l-0.2-0.3c-0.3,0.2-0.5,0.3-0.8,0.3c-0.4,0-0.6-0.2-0.6-0.5v0c0-0.3,0.2-0.5,0.8-0.7
				c0.7-0.3,1-0.5,1-1v0c0-0.5-0.5-0.9-1.1-0.9C32.6,3.6,32.2,3.7,31.8,4"/>
		</g>
	</g>
	<g>
		<g>
			<path class="st0" d="M9.1-12c-0.4,0-0.7,0-1.1,0.1c-0.5,0.1-3.2,0.9-4.2,1.2v-1H-7v0.7c-0.2-0.1-0.7-0.7-0.7-0.7h-15.8v0.4
				l-0.7-0.4h-5.5v0.3c-0.2-0.1-0.7-0.3-0.7-0.3h-5.4c0,0,0,2.4,0.1,3.1l0,1.9l0,2.3c0,0.8,0.1,1.6,0.4,2.3c0.3,0.7,0.7,1.3,1.2,1.7
				c0.5,0.5,1.2,0.9,1.9,1.1c0.7,0.3,1.5,0.4,2.4,0.4c0.3,0,0.6,0,0.8,0c0.2,0,0.4-0.1,0.6-0.1l0,0l0,0l1.9-0.4
				c0.1,0,0.2,0.1,0.3,0.1c0.2,0.1,0.5,0.2,0.8,0.2C-25.2,1-25,1-24.7,1c0.3,0,0.6,0,0.9,0c0.6,0,1.3-0.1,1.8-0.2s2.4-0.9,3.6-1.4
				v1.4h5.5c0,0,1.2-0.8,1.5-1.1c0.1,0,0.1,0.1,0.2,0.1c0.5,0.4,1.1,0.7,1.7,0.9C-8.7,1-8,1.1-7.3,1.1c0.8,0,1.5-0.1,2.1-0.3
				c0.6-0.2,1.2-0.5,1.7-0.9c0.5-0.4,1-0.9,1.2-1.2C-2.1-1.5-1.9-1.9-1.8-2c0,0.4,0,2.8,0,2.8h5.6v-1.7c0.5,0.3,1.6,0.8,2,1.1
				c0.5,0.3,1,0.5,1.5,0.6C8,1,8.5,1.1,9.1,1.1c0.6,0,1.3-0.1,1.9-0.3c0.6-0.2,1.1-0.4,1.6-0.7c0.4-0.2,0.7-0.5,1-0.8
				c0.5,0.2,4.4,1.4,4.4,1.4c0.1,0,0.2,0.1,0.3,0.1c0.6,0.2,1.3,0.3,2,0.3c0.6,0,1.2-0.1,1.7-0.2c0.5-0.1,1-0.3,1.5-0.6
				c0.1,0,0.2-0.1,0.3-0.2c0,0,4.6,1,5.1,1.1c0.5,0.1,1.1,0.1,1.4,0.1c0.4,0,0.8,0,1.2-0.1c0.4-0.1,0.8-0.1,1.2-0.3
				C33.2,1,33.6,0.8,34,0.7c0.4-0.2,0.7-0.4,1.1-0.6l0.9-0.6L34-4c0.2-0.2,0.4-0.3,0.6-0.5C34.8-4.8,35-5,35.2-5.3
				c0.2-0.3,0.3-0.6,0.4-0.9c0.1-0.3,0.1-0.7,0.1-1.1c0-0.7-0.1-1.3-0.4-1.9c-0.2-0.6-0.6-1.1-1.1-1.5c-0.5-0.4-1-0.7-1.7-0.9
				c-0.7-0.2-1.4-0.3-2.2-0.3c-0.3,0-0.6,0-0.9,0c-0.4,0-0.6,0.1-1.1,0.2s-2.1,0.5-2.1,0.5l0-0.4h-5.4l-0.9,0.5
				c0-0.1-0.1-0.5-0.1-0.5h-5.5c0,0-1.6,0.4-2.1,0.6c-0.5-0.3-1-0.5-1.5-0.6C10.3-11.9,9.7-12,9.1-12z"/>
			<path class="st0" d="M18.2,0.6C18.2,0.6,18.2,0.6,18.2,0.6C18.2,0.6,18.2,0.6,18.2,0.6z"/>
		</g>
		<path class="st1" d="M-17.5-0.1h3.8v-10.7h-3.8V-0.1z M-0.9-10.8h3.8v10.7h-3.8V-10.8z M31.3-3.8L31.3-3.8
			c-0.9,0.4-1.5,0.6-1.5,0.9v0c0,0.2,0.2,0.4,0.6,0.4c0.7,0,1.7-0.3,2.6-0.9l0.2-0.1l1.5,2.7l-0.2,0.1c-1.2,0.8-2.7,1.2-4.1,1.2
			c-2.6,0-4.3-1.4-4.3-3.6v0c0-2.1,1.6-2.9,3.5-3.6c1-0.4,1.5-0.6,1.5-0.9v0c0-0.4-0.5-0.4-0.7-0.4c-0.9,0-2,0.4-3.1,1.1l-0.2,0.1
			l-1.5-2.7l0.1-0.1c1.7-1.2,3.5-1.5,4.7-1.5c2.7,0,4.3,1.4,4.3,3.7v0C34.7-5.4,33.4-4.6,31.3-3.8 M-2.3-4.3c-0.1,2.6-2,4.5-4.9,4.5
			s-5-1.8-5-4.5c0,0,0-3.2-0.1-6.5h3.8c0,1.5,0.1,6,0.1,6c0,0.6,0.5,1.1,1.2,1.1c0.7,0,1.2-0.4,1.2-1.1c0,0,0.1-5.1,0.1-6h3.8
			C-2.3-7.5-2.3-4.3-2.3-4.3 M25.3-4.3c-0.1,2.6-2,4.5-4.9,4.5c-3,0-5-1.8-5-4.5c0,0,0-3.2-0.1-6.5h3.8c0,1.5,0.1,6,0.1,6
			c0,0.6,0.5,1.1,1.2,1.1c0.7,0,1.2-0.4,1.2-1.1c0,0,0.1-5.1,0.1-6h3.8C25.3-7.5,25.3-4.3,25.3-4.3 M-18.9-4.3
			c-0.1,2.6-2,4.5-4.9,4.5c-1.2,0-2.3-0.3-3.1-0.8c-0.8,0.5-1.8,0.8-3,0.8c-3,0-5-1.8-5-4.5c0,0-0.1-3.2-0.1-6.5h3.7
			c0,1.5,0.1,6,0.1,6c0,0.6,0.5,1.1,1.2,1.1c0.7,0,1.2-0.4,1.2-1.1c0,0,0.1-3,0.1-3.4l0,0c0,0,0,0,0,0c0,0,0-1.7,0-2.6h3.8
			c0,1.5,0.1,6,0.1,6c0,0.6,0.5,1.1,1.2,1.1c0.7,0,1.2-0.4,1.2-1.1c0,0,0.1-3,0.1-3.4v0c0,0,0,0,0,0c0,0,0-1.7,0-2.6h3.7
			C-18.9-7.5-18.9-4.3-18.9-4.3"/>
		<path class="st1" d="M11.2-5.4c0-1.2-0.9-2.1-2.1-2.1C8-7.6,7-6.6,7-5.4c0,0.2,0,0.5,0.1,0.7H3.6c0-0.2,0-0.5,0-0.7
			c0-3.1,2.5-5.6,5.6-5.6c3.1,0,5.6,2.5,5.6,5.6c0,0.2,0,0.5,0,0.7h-3.6C11.2-5,11.2-5.2,11.2-5.4z"/>
		<path class="st1" d="M14.5-3.8c-0.7,2.3-2.8,4-5.4,4c-2.5,0-4.7-1.7-5.4-4h2.6v0h5.7v0H14.5z"/>
		<path class="st1" d="M11.1-4.7c0.1-0.2,0.1-0.5,0.1-0.7c0-1.2-0.9-2.1-2.1-2.1C8-7.6,7-6.6,7-5.4c0,0.2,0,0.5,0.1,0.7H3.6
			c0-0.2,0-0.5,0-0.7c0-3.1,2.5-5.6,5.6-5.6s5.6,2.5,5.6,5.6c0,0.2,0,0.5,0,0.7H11.1z"/>
	</g>
</symbol>
<use xlink:href="#Under1in_01b"  width="71.9" height="24" x="-35.9" y="-12" transform="matrix(8.0241 0 0 -8.0241 332.3556 123.3091)" style="overflow:visible;"/>
</svg>
