<?xml version="1.0" encoding="utf-8"?>
<!-- Generator: Adobe Illustrator 22.1.0, SVG Export Plug-In . SVG Version: 6.00 Build 0)  -->
<svg version="1.1" id="Layer_1" xmlns="http://www.w3.org/2000/svg" xmlns:xlink="http://www.w3.org/1999/xlink" x="0px" y="0px"
	 viewBox="0 0 195.1 121.5" style="enable-background:new 0 0 195.1 121.5;" xml:space="preserve">
<style type="text/css">
	.st0{fill:#030303;}
</style>
<path class="st0" d="M83.5,87.4c-2,0-3.5,1.5-3.6,3.6c0,1.7,1,2.7,2.8,2.7c2,0,3.5-1.5,3.6-3.6C86.3,88.4,85.3,87.4,83.5,87.4"/>
<path class="st0" d="M68.7,103.7c-0.1,0.6-0.3,1.2-0.6,1.8c-0.3,0.5-0.6,1-1.1,1.4c-0.4,0.4-0.9,0.7-1.4,0.9c-1,0.4-2.2,0.4-3.1,0.1
	c-0.4-0.2-0.8-0.4-1.1-0.7c-0.3-0.3-0.5-0.7-0.7-1.2c-0.1-0.5-0.2-1-0.2-1.6c0-0.7,0.2-1.4,0.5-2c0.3-0.6,0.6-1.2,1.1-1.6
	c0.4-0.5,0.9-0.8,1.5-1.1c0.6-0.3,1.2-0.4,1.8-0.4c0.6,0,1.1,0.1,1.5,0.3c0.4,0.2,0.8,0.5,1.1,0.9c0.3,0.4,0.5,0.8,0.6,1.4
	C68.8,102.4,68.8,103,68.7,103.7 M77.2,88.2c-0.1-0.1-0.2-0.1-0.3-0.1h-4.5c-0.2,0-0.4,0.1-0.4,0.3c0,0-1.7,8.5-1.8,9.1
	c-1.1-2-3.3-3.2-6-3.2c-5.4,0-9.4,4.4-9.4,10.4c0,4.9,3,8.3,7.4,8.3c2.1,0,4-0.8,5.4-2.4c-0.1,0.4-0.2,0.9-0.3,1.4
	c0,0.1,0,0.2,0.1,0.3c0.1,0.1,0.2,0.1,0.3,0.1l4.4,0c0.2,0,0.4-0.1,0.4-0.3l4.7-23.6C77.3,88.4,77.3,88.3,77.2,88.2"/>
<path class="st0" d="M84.2,96.3h-4.6c-0.2,0-0.4,0.1-0.4,0.3L76.1,112c0,0.1,0,0.2,0.1,0.3c0.1,0.1,0.2,0.1,0.3,0.1h4.6
	c0.2,0,0.4-0.1,0.4-0.3l3.1-15.4c0-0.1,0-0.2-0.1-0.3C84.4,96.3,84.3,96.3,84.2,96.3"/>
<path class="st0" d="M24.2,99.2c0,0-4.5,0-4.6,0c0-0.1,1.2-5.9,1.2-6.1c0.2,0,4.3,0,4.3,0c2,0,3.2,1,3.2,2.7
	C28.2,97.9,26.7,99.2,24.2,99.2 M17.2,111c0.5-2.1,1.3-6.7,1.4-6.8c0.2,0,5.4,0,5.4,0c6.2,0,10.1-3.3,10.1-8.7
	c0-4.7-3.2-7.5-8.6-7.5h-9.2c-0.2,0-0.4,0.1-0.4,0.3l-4.7,23.4c0,0.1,0,0.2,0.1,0.3c0.1,0.1,0.2,0.1,0.3,0.1h1.8l2.3,0
	C15.7,112.3,16.9,112.3,17.2,111"/>
<path class="st0" d="M117.1,107.7c-2.3,0-3.7-1.3-3.7-3.4c0-2.7,1.9-4.7,4.5-4.7c2.3,0,3.7,1.3,3.7,3.4
	C121.6,105.8,119.7,107.7,117.1,107.7 M118.3,94.4c-6.1,0-10.4,4.3-10.4,10.3c0,5.1,3.5,8.4,8.9,8.4c6.1,0,10.4-4.3,10.4-10.3
	C127.2,97.6,123.7,94.4,118.3,94.4"/>
<path class="st0" d="M100.1,103.7c-0.1,0.6-0.3,1.2-0.6,1.8c-0.3,0.5-0.6,1-1.1,1.4c-0.4,0.4-0.9,0.7-1.4,0.9
	c-1,0.4-2.2,0.4-3.1,0.1c-0.4-0.2-0.8-0.4-1.1-0.7c-0.3-0.3-0.5-0.7-0.7-1.2c-0.1-0.5-0.2-1-0.2-1.6c0-0.7,0.2-1.4,0.5-2
	c0.3-0.6,0.6-1.2,1.1-1.6c0.4-0.5,0.9-0.8,1.5-1.1c0.6-0.3,1.2-0.4,1.8-0.4c0.6,0,1.1,0.1,1.5,0.3c0.4,0.2,0.8,0.5,1.1,0.9
	c0.3,0.4,0.5,0.8,0.6,1.4C100.2,102.4,100.2,103,100.1,103.7 M108.5,88.2c-0.1-0.1-0.2-0.1-0.3-0.1h-4.5c-0.2,0-0.4,0.1-0.4,0.3
	c0,0-1.7,8.5-1.8,9.1c-1.1-2-3.3-3.2-6-3.2c-5.4,0-9.4,4.4-9.4,10.4c0,4.9,3,8.3,7.4,8.3c2.1,0,4-0.8,5.4-2.4
	c-0.1,0.4-0.2,0.9-0.3,1.4c0,0.1,0,0.2,0.1,0.3c0.1,0.1,0.2,0.1,0.3,0.1l4.4,0c0.2,0,0.4-0.1,0.4-0.3l4.7-23.6
	C108.6,88.4,108.6,88.3,108.5,88.2"/>
<path class="st0" d="M141.9,95.7c-2.3-1.1-4.7-1.5-6.9-1.3c-3.8,0.3-6,2.6-5.7,6c0.2,2,1.3,3.6,3.5,4.7l2.4,1.3
	c1,0.5,1.1,0.8,1.1,1.1c0.1,0.7-0.8,0.9-1.3,0.9c-1.5,0.1-3.4-0.4-5.3-1.7c-0.1-0.1-0.2-0.1-0.3,0c-0.1,0-0.2,0.1-0.2,0.2l-1.9,3.4
	c-0.1,0.2,0,0.4,0.1,0.5c2.4,1.6,5.2,2.4,8,2.1c4.3-0.4,6.5-2.6,6.2-6.2c-0.2-2.1-1.2-3.5-3.6-4.7l-2.2-1.1
	c-1.3-0.7-1.3-0.9-1.4-1.2c0-0.2-0.1-0.8,1.2-0.9c1.2-0.1,2.8,0.3,4.4,1c0.1,0,0.2,0.1,0.3,0c0.1,0,0.2-0.1,0.2-0.2l1.5-3.5
	C142.2,96,142.1,95.8,141.9,95.7"/>
<path class="st0" d="M166,88.2c-0.1-0.1-0.2-0.2-0.4-0.2h-6.3c-0.1,0-0.3,0.1-0.4,0.2c0,0-6.3,8.9-6.7,9.7c-0.1-0.8-3.2-9.6-3.2-9.6
	c-0.1-0.2-0.2-0.3-0.4-0.3h-5.5c-0.1,0-0.3,0.1-0.4,0.2c-0.1,0.1-0.1,0.3-0.1,0.4l5.8,14.8l-1.8,8.6c0,0.1,0,0.3,0.1,0.4
	c0.1,0.1,0.2,0.2,0.3,0.2h4.5c0.6,0,1.1-0.4,1.2-1l1.6-8l11.5-14.8C166,88.5,166.1,88.3,166,88.2"/>
<path class="st0" d="M172.6,103.5c-0.1,0.6-0.3,1.2-0.6,1.7c-0.3,0.5-0.6,1-1,1.3c-0.4,0.4-0.8,0.7-1.3,0.9c-0.9,0.4-2.1,0.4-3,0.1
	c-0.4-0.2-0.7-0.4-1-0.7c-0.3-0.3-0.5-0.7-0.6-1.1c-0.1-0.4-0.2-0.9-0.2-1.5c0-0.7,0.2-1.3,0.4-1.9c0.3-0.6,0.6-1.1,1-1.5
	c0.4-0.4,0.9-0.8,1.4-1c0.5-0.3,1.1-0.4,1.7-0.4c0.5,0,1,0.1,1.5,0.3c0.4,0.2,0.8,0.5,1.1,0.8c0.3,0.4,0.5,0.8,0.6,1.3
	C172.7,102.3,172.7,102.9,172.6,103.5 M179.4,94.9c-0.1-0.1-0.2-0.1-0.3-0.1h-4.3c-0.2,0-0.3,0.1-0.4,0.3c0,0-0.2,0.8-0.3,1.4l0,0
	c-1-1.2-2.5-1.9-4-2c-1.4-0.1-2.7,0.1-4,0.6c-4.3,1.6-7.1,5.8-7.1,10.4c0,4,2.7,6.7,6.7,6.9c2.1,0.1,4-0.5,5.7-2
	c-0.1,0.4-0.2,1-0.3,1.4c0,0.1,0,0.2,0.1,0.3c0.1,0.1,0.2,0.1,0.3,0.1l4.3,0c0.2,0,0.3-0.1,0.4-0.3l3.3-16.8
	C179.5,95.1,179.4,95,179.4,94.9"/>
<path class="st0" d="M40.1,101.2c0.8-2,2.3-3,4.5-3c2.3,0,3.4,1,3.5,3C47.7,101.3,40.5,101.2,40.1,101.2 M44.7,94.3
	c-5.9,0-10.3,4.3-10.3,10.3c0,5.1,3.5,8.3,9,8.3c2.5,0,4.6-0.6,6.8-2.1c0.2-0.1,0.2-0.4,0.1-0.6l-2.7-2.8c-0.1-0.1-0.3-0.1-0.5-0.1
	c-1.2,0.6-2.3,0.9-3.6,0.9c-2.6,0-4-1.2-4.1-3.2l12.5,0c0.2,0,0.3-0.1,0.4-0.3c0.3-1.3,0.4-2.2,0.4-3.2
	C52.8,97.1,49.7,94.3,44.7,94.3"/>
<path class="st0" d="M109,8.1h-0.7l-3.2,0H68c-0.6,0-1.1,0.5-1.1,1.1V15c0,6.4,4.5,10,12.8,10l29.2,0.1c3.1,0,5.6,2.5,5.6,5.6
	c0,3.1-2.5,5.6-5.6,5.6H76.2c-0.5,0-0.9,0.3-1,0.8l-7.8,30.6c-0.1,0.3,0,0.6,0.2,0.9c0.2,0.3,0.5,0.4,0.8,0.4h10.4
	c3.9,0,5.8-3.2,6.2-4.9l3.1-11.1H109c12.4,0,22.4-10.1,22.4-22.4C131.4,18.2,121.3,8.1,109,8.1"/>
</svg>
